<?xml version="1.0" encoding="UTF-8"?><svg id="Layer_1" xmlns="http://www.w3.org/2000/svg" viewBox="0 0 64 64"><defs><style>.cls-1{fill:#cecdc3;}.cls-2{fill:#100f0f;}</style></defs><rect class="cls-2" width="64" height="64" rx="8" ry="8"/><g><path class="cls-1" d="M7.75,38.29V7.75h12.73c2.29,0,4.2,.32,5.75,.97s2.71,1.55,3.49,2.71c.78,1.16,1.17,2.51,1.17,4.04,0,1.16-.24,2.2-.73,3.11s-1.16,1.66-2.01,2.26c-.86,.6-1.85,1.01-2.97,1.25v.3c1.23,.06,2.37,.39,3.42,1,1.05,.61,1.89,1.45,2.53,2.53s.96,2.35,.96,3.82c0,1.64-.42,3.1-1.25,4.39-.84,1.29-2.04,2.3-3.62,3.04s-3.5,1.11-5.76,1.11H7.75Zm7.38-17.98h4.09c.8,0,1.52-.13,2.15-.4,.63-.27,1.12-.66,1.47-1.16,.35-.51,.53-1.12,.53-1.84,0-1.02-.36-1.83-1.09-2.42-.73-.59-1.71-.88-2.94-.88h-4.21v6.7Zm0,12.03h4.56c1.6,0,2.78-.3,3.54-.91,.76-.6,1.14-1.45,1.14-2.53,0-.79-.18-1.46-.55-2.04-.37-.57-.89-1.01-1.57-1.33-.67-.31-1.49-.47-2.43-.47h-4.7v7.28Z"/><path class="cls-1" d="M33.21,55.92V25.38h7.29v11.56h.15c.3-.7,.72-1.37,1.27-2.01s1.26-1.18,2.12-1.59c.86-.41,1.89-.62,3.09-.62,1.59,0,3.08,.42,4.47,1.25,1.39,.84,2.51,2.12,3.36,3.86,.85,1.74,1.28,3.96,1.28,6.65s-.41,4.77-1.23,6.52-1.92,3.06-3.31,3.94-2.93,1.31-4.62,1.31c-1.15,0-2.15-.19-3-.57-.85-.38-1.55-.87-2.13-1.49-.57-.62-1.01-1.28-1.32-1.98h-.22v3.71h-7.22Zm7.14-11.45c0,1.23,.17,2.31,.5,3.22,.33,.91,.82,1.62,1.45,2.12,.63,.5,1.39,.75,2.27,.75s1.66-.25,2.28-.75c.63-.5,1.1-1.21,1.43-2.12,.32-.92,.48-1.99,.48-3.22s-.16-2.3-.48-3.21c-.32-.9-.8-1.6-1.42-2.1-.62-.5-1.39-.75-2.29-.75s-1.66,.24-2.28,.73c-.63,.49-1.11,1.18-1.44,2.09-.33,.9-.5,1.98-.5,3.23Z"/></g></svg>