<?xml version="1.0" encoding="UTF-8"?><svg id="Layer_2" xmlns="http://www.w3.org/2000/svg" viewBox="0 0 154.52 161.82"><g id="Layer_2-2"><g><polygon class="cls-1" points="77.4 0 4.86 22.89 77.4 45.77 149.69 22.89 77.4 0"/><path class="cls-1" d="M79.49,49.49v112.32l75.03-31.46V25.74l-75.03,23.75Zm64.75-.65c-.95,6.52-1.9,13.05-2.85,19.57-.77,5.28-1.55,10.57-2.32,15.85-.82,5.62-1.62,11.23-2.44,16.85-.79,5.47-1.59,10.94-2.4,16.41-.04,.24-.23,.57-.43,.66-2.26,.97-4.54,1.9-6.82,2.83-.09,.04-.2,.04-.34,.07-2.87-15.07-5.73-30.12-8.59-45.17h-.12c-.2,1.14-.39,2.29-.59,3.43-1.41,8.25-2.82,16.49-4.22,24.74-1.27,7.49-2.57,14.97-3.77,22.46-.22,1.35-.64,2.16-2.02,2.61-1.94,.63-3.79,1.52-5.68,2.29-.17,.07-.35,.12-.58,.2-3.69-21.56-7.38-43.07-11.07-64.67h-.03l.02-.03v.03c2.78-.97,5.5-1.91,8.33-2.89,2.43,16.09,4.85,32.13,7.28,48.16h.13c.18-1.07,.37-2.14,.54-3.2,.82-4.98,1.63-9.96,2.45-14.95,.98-5.97,1.96-11.94,2.94-17.91,.93-5.7,1.87-11.41,2.79-17.11,.08-.47,.26-.71,.73-.86,1.86-.61,3.71-1.28,5.56-1.92,.16-.05,.32-.09,.57-.17,2.83,15.58,5.65,31.12,8.47,46.67h.11c.11-.73,.22-1.46,.31-2.19,.96-7.35,1.92-14.69,2.88-22.04,1.09-8.32,2.17-16.64,3.26-24.95,.1-.79,.17-1.58,.31-2.36,.04-.22,.21-.53,.4-.6,2.33-.84,4.68-1.65,7.02-2.46,.04,0,.08,0,.21,0-.01,.22-.01,.44-.04,.65Z"/><path class="cls-1" d="M55.29,43.18L0,25.74v104.61l75.31,31.47V49.49l-20.02-6.31Zm1.33,40.83v-.03c-1.41-.47-2.66-.87-3.89-1.28-1.54-.51-3.09-1.03-4.64-1.52-.37-.12-.52-.3-.53-.7-.1-3.12-.75-6.09-2.59-8.68-2.53-3.56-6.02-5.47-10.37-5.67-2.82-.13-4.66,1.42-5.25,4.18-.8,3.68,.13,6.93,2.5,9.82,2.39,2.92,5.35,5.2,8.36,7.43,4.01,2.97,7.76,6.21,10.79,10.21,2.92,3.85,4.83,8.13,5.38,12.95,.38,3.31,.4,6.63-.7,9.84-1.81,5.29-6.02,7.42-11.06,6.92-7.44-.74-13.37-4.43-18.23-9.93-3.67-4.15-6.05-8.98-7.01-14.45-.28-1.62-.36-3.27-.55-5.04,.37,.11,.58,.16,.78,.23,2.46,.87,4.91,1.75,7.37,2.59,.48,.16,.56,.45,.57,.89,.08,3.84,1.19,7.32,3.7,10.26,2.67,3.12,6.15,4.9,10.16,5.57,3.34,.55,5.73-1.48,6.09-4.88,.45-4.34-.89-7.99-3.94-11.09-2.47-2.51-5.28-4.6-8.06-6.75-4.07-3.16-7.89-6.59-10.75-10.94-2.24-3.41-3.77-7.11-4.17-11.2-.33-3.47-.15-6.89,1.43-10.09,2-4.05,5.36-6.06,9.78-6.13,5.35-.09,10.05,1.86,14.16,5.17,5.8,4.67,9.09,10.83,10.29,18.12,.22,1.32,.25,2.67,.38,4.17h.02l-.02,.03Z"/></g></g></svg>